<svg xmlns="http://www.w3.org/2000/svg" xmlns:xlink="http://www.w3.org/1999/xlink" width="1366" height="387" viewBox="0 0 1366 387"><defs><clipPath id="a"><rect width="1366" height="387" transform="translate(0 1869)" fill="#fff" stroke="#707070" stroke-width="1"/></clipPath></defs><g transform="translate(0 -1869)"><g transform="translate(709 1877)" fill="#d8fcc9"><path d="M 154.5 308.5 C 144.0509643554688 308.5 133.6086578369141 307.4473571777344 123.4631118774414 305.3712768554688 C 113.5756530761719 303.3479919433594 103.8500366210938 300.3290100097656 94.55638122558594 296.3981018066406 C 85.43138122558594 292.53857421875 76.63023376464844 287.761474609375 68.39749908447266 282.1994934082031 C 60.2428092956543 276.6903076171875 52.57450103759766 270.3633728027344 45.60553741455078 263.3944702148438 C 38.63661575317383 256.4255065917969 32.3096923828125 248.7571868896484 26.80050086975098 240.6024932861328 C 21.23853874206543 232.3697662353516 16.46142387390137 223.5686187744141 12.60188484191895 214.4436187744141 C 8.670999526977539 205.1499633789063 5.651999950408936 195.4243469238281 3.628730773925781 185.5368804931641 C 1.552653789520264 175.3913421630859 0.5 164.9490356445313 0.5 154.5 C 0.5 144.0509643554688 1.552653789520264 133.6086578369141 3.628730773925781 123.4631118774414 C 5.651999950408936 113.5756530761719 8.670999526977539 103.8500366210938 12.60188484191895 94.55638122558594 C 16.46142387390137 85.43138122558594 21.23853874206543 76.63023376464844 26.80050086975098 68.39749908447266 C 32.3096923828125 60.2428092956543 38.63661575317383 52.57450103759766 45.60553741455078 45.60553741455078 C 52.57450103759766 38.63661575317383 60.2428092956543 32.3096923828125 68.39749908447266 26.80050086975098 C 76.63023376464844 21.23853874206543 85.43138122558594 16.46142387390137 94.55638122558594 12.60188484191895 C 103.8500366210938 8.670999526977539 113.5756530761719 5.651999950408936 123.4631118774414 3.628730773925781 C 133.6086578369141 1.552653789520264 144.0509643554688 0.5 154.5 0.5 C 164.9490356445313 0.5 175.3913421630859 1.552653789520264 185.5368804931641 3.628730773925781 C 195.4243469238281 5.651999950408936 205.1499633789063 8.670999526977539 214.4436187744141 12.60188484191895 C 223.5686187744141 16.46142387390137 232.3697662353516 21.23853874206543 240.6024932861328 26.80050086975098 C 248.7571868896484 32.3096923828125 256.4255065917969 38.63661575317383 263.3944702148438 45.60553741455078 C 270.3633728027344 52.57450103759766 276.6903076171875 60.2428092956543 282.1994934082031 68.39749908447266 C 287.761474609375 76.63023376464844 292.53857421875 85.43138122558594 296.3981018066406 94.55638122558594 C 300.3290100097656 103.8500366210938 303.3479919433594 113.5756530761719 305.3712768554688 123.4631118774414 C 307.4473571777344 133.6086578369141 308.5 144.0509643554688 308.5 154.5 C 308.5 164.9490356445313 307.4473571777344 175.3913421630859 305.3712768554688 185.5368804931641 C 303.3479919433594 195.4243469238281 300.3290100097656 205.1499633789063 296.3981018066406 214.4436187744141 C 292.53857421875 223.5686187744141 287.761474609375 232.3697662353516 282.1994934082031 240.6024932861328 C 276.6903076171875 248.7571868896484 270.3633728027344 256.4255065917969 263.3944702148438 263.3944702148438 C 256.4255065917969 270.3633728027344 248.7571868896484 276.6903076171875 240.6024932861328 282.1994934082031 C 232.3697662353516 287.761474609375 223.5686187744141 292.53857421875 214.4436187744141 296.3981018066406 C 205.1499633789063 300.3290100097656 195.4243469238281 303.3479919433594 185.5368804931641 305.3712768554688 C 175.3913421630859 307.4473571777344 164.9490356445313 308.5 154.5 308.5 Z" stroke="none"/><path d="M 154.5 1 C 144.0845794677734 1 133.6759643554688 2.049224853515625 123.5633392333984 4.11859130859375 C 113.7082366943359 6.135223388671875 104.0144195556641 9.14434814453125 94.75119018554688 13.0623779296875 C 85.6558837890625 16.90933227539063 76.88337707519531 21.67092895507813 68.67738342285156 27.21481323242188 C 60.549072265625 32.70614624023438 52.90554809570313 39.01266479492188 45.9591064453125 45.9591064453125 C 39.01266479492188 52.90554809570313 32.70614624023438 60.549072265625 27.21481323242188 68.67738342285156 C 21.67092895507813 76.88337707519531 16.90933227539063 85.6558837890625 13.0623779296875 94.75119018554688 C 9.14434814453125 104.0144195556641 6.135223388671875 113.7082366943359 4.11859130859375 123.5633392333984 C 2.049224853515625 133.6759643554688 1 144.0845794677734 1 154.5 C 1 164.9154205322266 2.049224853515625 175.3240356445313 4.11859130859375 185.4366455078125 C 6.135223388671875 195.2917785644531 9.14434814453125 204.9855804443359 13.0623779296875 214.2488098144531 C 16.90933227539063 223.3441162109375 21.67092895507813 232.1166076660156 27.21481323242188 240.3226165771484 C 32.70614624023438 248.450927734375 39.01266479492188 256.0944519042969 45.9591064453125 263.0408935546875 C 52.90554809570313 269.9873352050781 60.549072265625 276.2938537597656 68.67738342285156 281.7851867675781 C 76.88337707519531 287.3290710449219 85.6558837890625 292.0906677246094 94.75119018554688 295.9376220703125 C 104.0144195556641 299.8556518554688 113.7082366943359 302.8647766113281 123.5633392333984 304.8814086914063 C 133.6759643554688 306.9507751464844 144.0845794677734 308 154.5 308 C 164.9154205322266 308 175.3240356445313 306.9507751464844 185.4366455078125 304.8814086914063 C 195.2917785644531 302.8647766113281 204.9855804443359 299.8556518554688 214.2488098144531 295.9376220703125 C 223.3441162109375 292.0906677246094 232.1166076660156 287.3290710449219 240.3226165771484 281.7851867675781 C 248.450927734375 276.2938537597656 256.0944519042969 269.9873352050781 263.0408935546875 263.0408935546875 C 269.9873352050781 256.0944519042969 276.2938537597656 248.450927734375 281.7851867675781 240.3226165771484 C 287.3290710449219 232.1166076660156 292.0906677246094 223.3441162109375 295.9376220703125 214.2488098144531 C 299.8556518554688 204.9855804443359 302.8647766113281 195.2917785644531 304.8814086914063 185.4366455078125 C 306.9507751464844 175.3240356445313 308 164.9154205322266 308 154.5 C 308 144.0845794677734 306.9507751464844 133.6759643554688 304.8814086914063 123.5633392333984 C 302.8647766113281 113.7082366943359 299.8556518554688 104.0144195556641 295.9376220703125 94.75119018554688 C 292.0906677246094 85.6558837890625 287.3290710449219 76.88337707519531 281.7851867675781 68.67738342285156 C 276.2938537597656 60.549072265625 269.9873352050781 52.90554809570313 263.0408935546875 45.9591064453125 C 256.0944519042969 39.01266479492188 248.450927734375 32.70614624023438 240.3226165771484 27.21481323242188 C 232.1166076660156 21.67092895507813 223.3441162109375 16.90933227539063 214.2488098144531 13.0623779296875 C 204.9855804443359 9.14434814453125 195.2917785644531 6.135223388671875 185.4366455078125 4.11859130859375 C 175.3240356445313 2.049224853515625 164.9154205322266 1 154.5 1 M 154.5 0 C 239.8280029296875 0 309 69.1719970703125 309 154.5 C 309 239.8280029296875 239.8280029296875 309 154.5 309 C 69.1719970703125 309 0 239.8280029296875 0 154.5 C 0 69.1719970703125 69.1719970703125 0 154.5 0 Z" stroke="none" fill="#b6ff63"/></g><g clip-path="url(#a)"><g transform="translate(153 1940)"><path d="M1298.1-64a518.171,518.171,0,0,1-36.777,74.513H-153.013C-157.8,4.8-161.811-.2-165-4.234Z" transform="translate(-10.296)" fill="none"/><path d="M1365.425,32V344.487H-211V32h42.029c43.712,40.845,151.313,128.181,286.122,126.717,82.993-.9,161.151-29.526,161.151-29.526,55.565-20.355,65.682-36.25,126.062-54.747,26.687-8.175,77.626-23.332,141.657-20.914,33.367,1.261,60.074,6.9,142.957,33.217,133.32,42.321,130.143,48.645,175.447,59.668,43.342,10.543,152.347,37.062,261.871-8C1190.53,111.992,1234.535,69.338,1263.2,32Z" transform="translate(0 -21.487)" fill="#3a3a3a"/><path d="M1257.8,32c-28.108,47.114-71.25,100.935-134.225,134.279-107.379,56.855-214.248,23.394-256.741,10.09-44.417-13.909-41.3-21.888-172.01-75.29C613.564,67.875,587.38,60.758,554.667,59.166c-62.777-3.05-112.718,16.075-138.882,26.39-59.2,23.34-69.116,43.4-123.593,69.08,0,0-76.627,36.123-157.995,37.257C2.029,193.741-103.464,83.538-146.32,32Z" transform="translate(-14.477 -43.363)" fill="none"/></g></g><g transform="matrix(0.087, -0.996, 0.996, 0.087, -1231.688, 2369.571)"><g transform="translate(357.097 1380.638)"><path d="M215.049,895.67l-58.479,53.9A85.644,85.644,0,0,1,215.049,895.67Z" transform="translate(-151.656 -892.78)" fill="#feb73d"/><path d="M242.417,893.141,152.03,976.46a84.924,84.924,0,0,1,1.223-12.609l76.479-70.494c2.554-.238,5.152-.357,7.771-.357C239.148,893,240.793,893.043,242.417,893.141Z" transform="translate(-152.03 -893)" fill="#feb73d"/><path d="M263.251,896.849,154.1,997.453a85.057,85.057,0,0,1-1.656-10.033l100.951-93.05A82.632,82.632,0,0,1,263.251,896.849Z" transform="translate(-151.996 -892.887)" fill="#feb73d"/><path d="M280.059,903.977,160.092,1015.091a86.877,86.877,0,0,1-3.442-8.2v-.011L272.526,900.07A82.574,82.574,0,0,1,280.059,903.977Z" transform="translate(-151.65 -892.418)" fill="#feb73d"/><path d="M292.859,912.919,167.978,1028.329a85.981,85.981,0,0,1-4.838-7.241L286.246,907.68Q289.688,910.148,292.859,912.919Z" transform="translate(-151.115 -891.791)" fill="#feb73d"/><path d="M304.24,925.142,179.066,1040.379a83.112,83.112,0,0,1-6.656-6.591L298.374,918.15A84.232,84.232,0,0,1,304.24,925.142Z" transform="translate(-150.352 -890.929)" fill="#feb73d"/><path d="M311.74,937.946,191.189,1048.93a81.036,81.036,0,0,1-7.079-4.7L307.628,930.51A82.706,82.706,0,0,1,311.74,937.946Z" transform="translate(-149.388 -889.911)" fill="#feb73d"/><path d="M316.393,952.16,204.911,1054.8c-2.652-.953-5.249-2.035-7.771-3.236L313.817,944.14A79.6,79.6,0,0,1,316.393,952.16Z" transform="translate(-148.315 -888.789)" fill="#feb73d"/><path d="M257.06,1050.105l49.907-45.946A85.794,85.794,0,0,1,257.06,1050.105Z" transform="translate(-143.381 -883.846)" fill="#feb73d"/><path d="M316.152,978.86a83.318,83.318,0,0,1-2.024,12.512l-70.158,64.584a83.547,83.547,0,0,1-12.62.974Z" transform="translate(-145.498 -885.93)" fill="#feb73d"/><path d="M317.957,969.006v.011L221.5,1057.824h-.011a84.853,84.853,0,0,1-9.3-1.743L317,959.59A84.326,84.326,0,0,1,317.957,969.006Z" transform="translate(-147.076 -887.516)" fill="#feb73d"/></g></g><g transform="matrix(0.951, -0.309, 0.309, 0.951, -335.498, 474.626)"><g transform="translate(907 1972)"><path d="M207.868,895.67l-51.3,47.281A75.126,75.126,0,0,1,207.868,895.67Z" transform="translate(-152.26 -893.135)" fill="#feb73d"/><path d="M231.317,893.123,152.03,966.21A74.493,74.493,0,0,1,153.1,955.15l67.087-61.836c2.241-.209,4.519-.313,6.817-.313C228.449,893,229.893,893.038,231.317,893.123Z" transform="translate(-152.03 -893)" fill="#feb73d"/><path d="M249.642,896.544l-95.75,88.249a74.61,74.61,0,0,1-1.453-8.8l88.553-81.622A72.476,72.476,0,0,1,249.642,896.544Z" transform="translate(-152.051 -893.069)" fill="#feb73d"/><path d="M264.9,903.5l-105.235,97.468a76.2,76.2,0,0,1-3.019-7.2v-.009L258.3,900.07A72.439,72.439,0,0,1,264.9,903.5Z" transform="translate(-152.264 -893.357)" fill="#feb73d"/><path d="M276.929,912.275,167.384,1013.513a75.407,75.407,0,0,1-4.244-6.352L271.128,907.68Q274.147,909.845,276.929,912.275Z" transform="translate(-152.592 -893.742)" fill="#feb73d"/><path d="M288.05,924.283l-109.8,101.085a72.914,72.914,0,0,1-5.839-5.782L282.9,918.15A73.872,73.872,0,0,1,288.05,924.283Z" transform="translate(-153.061 -894.272)" fill="#feb73d"/><path d="M296.066,937.033l-105.747,97.354a71.1,71.1,0,0,1-6.209-4.121L292.459,930.51A72.518,72.518,0,0,1,296.066,937.033Z" transform="translate(-153.652 -894.897)" fill="#feb73d"/><path d="M301.748,951.175l-97.791,90.034c-2.326-.836-4.6-1.785-6.817-2.839L299.488,944.14A69.819,69.819,0,0,1,301.748,951.175Z" transform="translate(-154.311 -895.586)" fill="#feb73d"/><path d="M257.06,1044.463l43.778-40.3A75.259,75.259,0,0,1,257.06,1044.463Z" transform="translate(-157.342 -898.622)" fill="#feb73d"/><path d="M305.738,978.86a73.086,73.086,0,0,1-1.775,10.975l-61.542,56.652a73.293,73.293,0,0,1-11.07.854Z" transform="translate(-156.041 -897.342)" fill="#feb73d"/><path d="M304.968,967.85v.01l-84.613,77.9h-.01a74.415,74.415,0,0,1-8.156-1.529l91.943-84.641A73.963,73.963,0,0,1,304.968,967.85Z" transform="translate(-155.072 -896.368)" fill="#feb73d"/></g></g></g></svg>