<svg xmlns="http://www.w3.org/2000/svg" width="1576.425" height="387" viewBox="0 0 1576.425 387"><g transform="translate(211 64)"><path d="M1298.1-64a518.171,518.171,0,0,1-36.777,74.513H-153.013C-157.8,4.8-161.811-.2-165-4.234Z" transform="translate(-10.296)" fill="none"/><path d="M1365.425,32V344.487H-211V32h42.029c43.712,40.845,151.313,128.181,286.122,126.717,82.993-.9,161.151-29.526,161.151-29.526,55.565-20.355,65.682-36.25,126.062-54.747,26.687-8.175,77.626-23.332,141.657-20.914,33.367,1.261,60.074,6.9,142.957,33.217,133.32,42.321,130.143,48.645,175.447,59.668,43.342,10.543,152.347,37.062,261.871-8C1190.53,111.992,1234.535,69.338,1263.2,32Z" transform="translate(0 -21.487)" fill="#3a3a3a"/><path d="M1257.8,32c-28.108,47.114-71.25,100.935-134.225,134.279-107.379,56.855-214.248,23.394-256.741,10.09-44.417-13.909-41.3-21.888-172.01-75.29C613.564,67.875,587.38,60.758,554.667,59.166c-62.777-3.05-112.718,16.075-138.882,26.39-59.2,23.34-69.116,43.4-123.593,69.08,0,0-76.627,36.123-157.995,37.257C2.029,193.741-103.464,83.538-146.32,32Z" transform="translate(-14.477 -43.363)" fill="none"/></g></svg>