<svg xmlns="http://www.w3.org/2000/svg" width="185.223" height="172.621" viewBox="0 0 185.223 172.621"><g transform="matrix(0.087, -0.996, 0.996, 0.087, -1406.507, 399.357)"><g transform="translate(357.097 1380.638)"><path d="M215.049,895.67l-58.479,53.9A85.644,85.644,0,0,1,215.049,895.67Z" transform="translate(-151.656 -892.78)" fill="#feb73d"/><path d="M242.417,893.141,152.03,976.46a84.924,84.924,0,0,1,1.223-12.609l76.479-70.494c2.554-.238,5.152-.357,7.771-.357C239.148,893,240.793,893.043,242.417,893.141Z" transform="translate(-152.03 -893)" fill="#feb73d"/><path d="M263.251,896.849,154.1,997.453a85.057,85.057,0,0,1-1.656-10.033l100.951-93.05A82.632,82.632,0,0,1,263.251,896.849Z" transform="translate(-151.996 -892.887)" fill="#feb73d"/><path d="M280.059,903.977,160.092,1015.091a86.877,86.877,0,0,1-3.442-8.2v-.011L272.526,900.07A82.574,82.574,0,0,1,280.059,903.977Z" transform="translate(-151.65 -892.418)" fill="#feb73d"/><path d="M292.859,912.919,167.978,1028.329a85.981,85.981,0,0,1-4.838-7.241L286.246,907.68Q289.688,910.148,292.859,912.919Z" transform="translate(-151.115 -891.791)" fill="#feb73d"/><path d="M304.24,925.142,179.066,1040.379a83.112,83.112,0,0,1-6.656-6.591L298.374,918.15A84.232,84.232,0,0,1,304.24,925.142Z" transform="translate(-150.352 -890.929)" fill="#feb73d"/><path d="M311.74,937.946,191.189,1048.93a81.036,81.036,0,0,1-7.079-4.7L307.628,930.51A82.706,82.706,0,0,1,311.74,937.946Z" transform="translate(-149.388 -889.911)" fill="#feb73d"/><path d="M316.393,952.16,204.911,1054.8c-2.652-.953-5.249-2.035-7.771-3.236L313.817,944.14A79.6,79.6,0,0,1,316.393,952.16Z" transform="translate(-148.315 -888.789)" fill="#feb73d"/><path d="M257.06,1050.105l49.907-45.946A85.794,85.794,0,0,1,257.06,1050.105Z" transform="translate(-143.381 -883.846)" fill="#feb73d"/><path d="M316.152,978.86a83.318,83.318,0,0,1-2.024,12.512l-70.158,64.584a83.547,83.547,0,0,1-12.62.974Z" transform="translate(-145.498 -885.93)" fill="#feb73d"/><path d="M317.957,969.006v.011L221.5,1057.824h-.011a84.853,84.853,0,0,1-9.3-1.743L317,959.59A84.326,84.326,0,0,1,317.957,969.006Z" transform="translate(-147.076 -887.516)" fill="#feb73d"/></g></g></svg>