<svg xmlns="http://www.w3.org/2000/svg" width="188.724" height="154.182" viewBox="0 0 188.724 154.182"><g transform="matrix(0.951, -0.309, 0.309, 0.951, -1471.99, -1566.285)"><g transform="translate(907 1972)"><path d="M207.868,895.67l-51.3,47.281A75.126,75.126,0,0,1,207.868,895.67Z" transform="translate(-152.26 -893.135)" fill="#feb73d"/><path d="M231.317,893.123,152.03,966.21A74.493,74.493,0,0,1,153.1,955.15l67.087-61.836c2.241-.209,4.519-.313,6.817-.313C228.449,893,229.893,893.038,231.317,893.123Z" transform="translate(-152.03 -893)" fill="#feb73d"/><path d="M249.642,896.544l-95.75,88.249a74.61,74.61,0,0,1-1.453-8.8l88.553-81.622A72.476,72.476,0,0,1,249.642,896.544Z" transform="translate(-152.051 -893.069)" fill="#feb73d"/><path d="M264.9,903.5l-105.235,97.468a76.2,76.2,0,0,1-3.019-7.2v-.009L258.3,900.07A72.439,72.439,0,0,1,264.9,903.5Z" transform="translate(-152.264 -893.357)" fill="#feb73d"/><path d="M276.929,912.275,167.384,1013.513a75.407,75.407,0,0,1-4.244-6.352L271.128,907.68Q274.147,909.845,276.929,912.275Z" transform="translate(-152.592 -893.742)" fill="#feb73d"/><path d="M288.05,924.283l-109.8,101.085a72.914,72.914,0,0,1-5.839-5.782L282.9,918.15A73.872,73.872,0,0,1,288.05,924.283Z" transform="translate(-153.061 -894.272)" fill="#feb73d"/><path d="M296.066,937.033l-105.747,97.354a71.1,71.1,0,0,1-6.209-4.121L292.459,930.51A72.518,72.518,0,0,1,296.066,937.033Z" transform="translate(-153.652 -894.897)" fill="#feb73d"/><path d="M301.748,951.175l-97.791,90.034c-2.326-.836-4.6-1.785-6.817-2.839L299.488,944.14A69.819,69.819,0,0,1,301.748,951.175Z" transform="translate(-154.311 -895.586)" fill="#feb73d"/><path d="M257.06,1044.463l43.778-40.3A75.259,75.259,0,0,1,257.06,1044.463Z" transform="translate(-157.342 -898.622)" fill="#feb73d"/><path d="M305.738,978.86a73.086,73.086,0,0,1-1.775,10.975l-61.542,56.652a73.293,73.293,0,0,1-11.07.854Z" transform="translate(-156.041 -897.342)" fill="#feb73d"/><path d="M304.968,967.85v.01l-84.613,77.9h-.01a74.415,74.415,0,0,1-8.156-1.529l91.943-84.641A73.963,73.963,0,0,1,304.968,967.85Z" transform="translate(-155.072 -896.368)" fill="#feb73d"/></g></g></svg>