<svg xmlns="http://www.w3.org/2000/svg" width="1366" height="296.198" viewBox="0 0 1366 296.198"><g transform="translate(0 -521)"><g transform="translate(13 -210.944)" fill="#fff" stroke-miterlimit="10"><path d="M 1352.5 984.6196899414063 L 109.9386672973633 984.6196899414063 L -12.5 984.6196899414063 L -12.5 824.2683715820313 C 0.8199449777603149 815.7321166992188 14.65392875671387 807.6229858398438 28.62100028991699 800.1648559570313 C 30.93433380126953 798.9298706054688 33.22983169555664 797.70068359375 35.45000076293945 796.5120239257813 C 66.92766571044922 779.6585083007813 91.79066467285156 766.3464965820313 120.8116683959961 760.4237060546875 C 130.638671875 758.4188232421875 139.8586730957031 757.4441528320313 148.9986724853516 757.4441528320313 C 158.5950012207031 757.4441528320313 168.3648376464844 758.5221557617188 178.8663330078125 760.7398681640625 C 188.8990020751953 762.8585205078125 200.0051727294922 766.1103515625 212.8195037841797 770.6813354492188 C 237.6714935302734 779.5463256835938 267.2196655273438 792.6521606445313 308.1159973144531 810.7911987304688 C 310.087158203125 811.6653442382813 312.0828247070313 812.550537109375 314.1036682128906 813.446533203125 C 458.6661682128906 877.5513305664063 506.8353271484375 897.7061767578125 570.2903442382813 917.36767578125 C 626.7598266601563 934.8710327148438 662.4076538085938 941.6904907226563 697.4340209960938 941.6904907226563 C 706.6233520507813 941.6904907226563 715.7578125 941.21484375 725.3594970703125 940.236328125 C 735.3004760742188 939.2236938476563 744.8140258789063 937.6861572265625 754.44384765625 935.5360107421875 C 763.2886962890625 933.56103515625 772.2511596679688 931.0598754882813 781.8436889648438 927.8895263671875 C 800.0153198242188 921.8838500976563 818.6078491210938 914.0796508789063 840.1363525390625 905.0433349609375 L 842.40185546875 904.0923461914063 C 887.2144775390625 885.28515625 908.8070068359375 872.0038452148438 929.6884765625 859.1600341796875 C 946.6115112304688 848.7508544921875 962.5960083007813 838.9190063476563 989.84130859375 826.7114868164063 C 998.8309936523438 822.6830444335938 1008.871643066406 818.2880249023438 1021.362670898438 813.447509765625 C 1036.920776367188 807.4185180664063 1052.784545898438 802.099365234375 1068.513549804688 797.6380004882813 C 1112.46630859375 785.1708374023438 1156.923217773438 778.849365234375 1200.649291992188 778.849365234375 C 1201.290649414063 778.849365234375 1201.940795898438 778.850830078125 1202.581665039063 778.853515625 C 1253.097412109375 779.0701904296875 1303.5380859375 787.7171630859375 1352.5 804.5516967773438 L 1352.5 984.6196899414063 Z" stroke="none"/><path d="M 148.99853515625 756.9441528320313 L 148.99853515625 757.9441528320313 C 139.8916015625 757.9445190429688 130.7042236328125 758.9158325195313 120.91162109375 760.9136352539063 C 91.9620361328125 766.82177734375 67.12744140625 780.1185302734375 35.685791015625 796.952880859375 C 33.465576171875 798.1416015625 31.1700439453125 799.3707275390625 28.856689453125 800.60595703125 C 14.9833984375 808.0137939453125 1.2396240234375 816.0657348632813 -12 824.541748046875 L -12 984.11962890625 L 109.938720703125 984.11962890625 L 1352 984.11962890625 L 1352 804.9085693359375 C 1303.193603515625 788.1668090820313 1252.926147460938 779.5693359375 1202.579467773438 779.3536376953125 C 1201.913330078125 779.3508911132813 1201.281860351563 779.3494262695313 1200.649047851563 779.3494262695313 C 1156.968872070313 779.3494262695313 1112.557983398438 785.6643676757813 1068.649658203125 798.118896484375 C 1052.935668945313 802.576171875 1037.086669921875 807.8903198242188 1021.543273925781 813.913818359375 C 1009.062194824219 818.7505493164063 999.0289306640625 823.142333984375 990.0457763671875 827.1677856445313 C 962.8302001953125 839.3619995117188 946.859130859375 849.1856079101563 929.9503784179688 859.5859985351563 C 909.052734375 872.4398193359375 887.443603515625 885.7312622070313 842.5950927734375 904.553466796875 L 840.3296508789063 905.504150390625 C 818.7916259765625 914.5447387695313 800.1907348632813 922.3523559570313 782.000732421875 928.3641357421875 C 772.392333984375 931.539794921875 763.4140014648438 934.0452270507813 754.5529174804688 936.0239868164063 C 744.9036254882813 938.1785278320313 735.3709106445313 939.7190551757813 725.4103393554688 940.7338256835938 C 715.7916259765625 941.7139892578125 706.6405639648438 942.1905517578125 697.4343872070313 942.1905517578125 C 688.1331176757813 942.1905517578125 678.9605712890625 941.704345703125 669.39306640625 940.7039794921875 C 659.9251098632813 939.7141723632813 650.255615234375 938.2401733398438 639.8319702148438 936.1974487304688 C 620.3865356445313 932.3865356445313 598.2421875 926.5550537109375 570.142333984375 917.8452758789063 C 506.6630859375 898.1761474609375 458.4845581054688 878.017822265625 313.90087890625 813.9036254882813 C 311.876708984375 813.0059814453125 309.877685546875 812.1194458007813 307.9033203125 811.2435913085938 C 267.02001953125 793.1103515625 237.4813232421875 780.0089111328125 212.6483154296875 771.15087890625 C 199.85595703125 766.5878295898438 188.7716064453125 763.3419799804688 178.7615966796875 761.2283325195313 C 168.294921875 759.0181884765625 158.5594482421875 757.9439697265625 148.99853515625 757.9441528320313 L 148.99853515625 756.9441528320313 M 148.99853515625 756.9442138671875 C 188.896484375 756.9432983398438 229.5177001953125 775.3931884765625 314.30615234375 812.9894409179688 C 459.9774780273438 877.5858154296875 507.5811157226563 897.413818359375 570.4383544921875 916.8899536132813 C 623.5698852539063 933.358642578125 660.5377197265625 941.1904907226563 697.434326171875 941.1904907226563 C 706.6486206054688 941.1904907226563 715.8517456054688 940.7026977539063 725.3088989257813 939.7388916015625 C 766.7867431640625 935.5139770507813 797.72802734375 922.297607421875 842.2081909179688 903.6312866210938 C 923.008544921875 869.720703125 928.4583740234375 853.6666870117188 989.6369018554688 826.2552490234375 C 1020.256286621094 812.5340576171875 1098.653076171875 778.3495483398438 1200.649047851563 778.3495483398438 C 1201.294311523438 778.3495483398438 1201.9365234375 778.3508911132813 1202.583618164063 778.3536376953125 C 1263.363647460938 778.6141357421875 1314.673828125 790.985595703125 1353 804.1948852539063 L 1353 985.11962890625 L 109.938720703125 985.11962890625 L -13 985.11962890625 L -13 823.994873046875 C -0.158203125 815.7567138671875 13.6300048828125 807.6029052734375 28.3856201171875 799.7238159179688 C 63.33251953125 781.0645141601563 89.556884765625 766.2919921875 120.711669921875 759.9337768554688 C 130.4652099609375 757.9439086914063 139.7137451171875 756.9444580078125 148.99853515625 756.9442138671875 Z" stroke="none" fill="#fff8f8"/></g><g transform="matrix(0.105, -0.995, 0.995, 0.105, -400.937, 663.86)"><g transform="translate(77 575)"><path d="M197.98,895.67l-41.41,38.168A60.645,60.645,0,0,1,197.98,895.67Z" transform="translate(-153.09 -893.624)" fill="#75e036"/><path d="M216.034,893.1l-64,59a60.135,60.135,0,0,1,.866-8.929l54.156-49.917c1.809-.169,3.648-.253,5.5-.253C213.72,893,214.885,893.031,216.034,893.1Z" transform="translate(-152.03 -893)" fill="#75e036"/><path d="M230.907,896.125l-77.294,71.239a60.232,60.232,0,0,1-1.173-7.1l71.485-65.89A58.493,58.493,0,0,1,230.907,896.125Z" transform="translate(-152.126 -893.32)" fill="#75e036"/><path d="M244.038,902.837l-84.951,78.681a61.519,61.519,0,0,1-2.437-5.81V975.7L238.7,900.07A58.474,58.474,0,0,1,244.038,902.837Z" transform="translate(-153.109 -894.651)" fill="#75e036"/><path d="M255,911.389l-88.43,81.724a60.892,60.892,0,0,1-3.426-5.127l87.173-80.306Q252.751,909.427,255,911.389Z" transform="translate(-154.625 -896.429)" fill="#75e036"/><path d="M265.761,923.1l-88.637,81.6a58.866,58.866,0,0,1-4.714-4.667l89.2-81.885A59.645,59.645,0,0,1,265.761,923.1Z" transform="translate(-156.79 -898.874)" fill="#75e036"/><path d="M274.487,935.775l-85.365,78.589a57.419,57.419,0,0,1-5.012-3.326l87.465-80.528A58.549,58.549,0,0,1,274.487,935.775Z" transform="translate(-159.523 -901.761)" fill="#75e036"/><path d="M281.585,949.819l-78.942,72.68c-1.878-.674-3.717-1.441-5.5-2.292l82.621-76.068A56.378,56.378,0,0,1,281.585,949.819Z" transform="translate(-162.566 -904.945)" fill="#75e036"/><path d="M257.06,1036.695l35.34-32.535A60.754,60.754,0,0,1,257.06,1036.695Z" transform="translate(-176.562 -918.964)" fill="#75e036"/><path d="M291.4,978.86a59,59,0,0,1-1.433,8.86l-49.68,45.733a59.19,59.19,0,0,1-8.937.69Z" transform="translate(-170.557 -913.055)" fill="#75e036"/><path d="M287.085,966.258v.008l-68.3,62.885h-.008a60.075,60.075,0,0,1-6.584-1.234l74.221-68.327A59.711,59.711,0,0,1,287.085,966.258Z" transform="translate(-166.082 -908.554)" fill="#75e036"/></g></g><g transform="matrix(0.951, -0.309, 0.309, 0.951, 490.409, 155.19)"><g transform="translate(33 575)"><path d="M207.9,895.67,156.57,942.984A75.178,75.178,0,0,1,207.9,895.67Z" transform="translate(-152.257 -893.133)" fill="#75e036"/><path d="M231.372,893.123,152.03,966.261a74.547,74.547,0,0,1,1.074-11.068l67.133-61.879c2.242-.209,4.522-.314,6.822-.314C228.5,893,229.947,893.038,231.372,893.123Z" transform="translate(-152.03 -893)" fill="#75e036"/><path d="M249.71,896.546l-95.816,88.311a74.665,74.665,0,0,1-1.454-8.807l88.615-81.679A72.526,72.526,0,0,1,249.71,896.546Z" transform="translate(-152.05 -893.068)" fill="#75e036"/><path d="M264.979,903.5l-105.308,97.536a76.253,76.253,0,0,1-3.021-7.2v-.009L258.366,900.07A72.493,72.493,0,0,1,264.979,903.5Z" transform="translate(-152.261 -893.353)" fill="#75e036"/><path d="M277.008,912.278,167.387,1013.586a75.478,75.478,0,0,1-4.247-6.356L271.2,907.68Q274.224,909.846,277.008,912.278Z" transform="translate(-152.585 -893.733)" fill="#75e036"/><path d="M288.131,924.288,178.253,1025.443a72.968,72.968,0,0,1-5.843-5.786L282.981,918.15A73.94,73.94,0,0,1,288.131,924.288Z" transform="translate(-153.047 -894.255)" fill="#75e036"/><path d="M296.144,937.037l-105.821,97.422a71.137,71.137,0,0,1-6.214-4.124L292.534,930.51A72.6,72.6,0,0,1,296.144,937.037Z" transform="translate(-153.631 -894.872)" fill="#75e036"/><path d="M301.821,951.18l-97.859,90.1c-2.328-.836-4.608-1.786-6.822-2.841l102.42-94.3A69.877,69.877,0,0,1,301.821,951.18Z" transform="translate(-154.281 -895.552)" fill="#75e036"/><path d="M257.06,1044.491l43.809-40.331A75.312,75.312,0,0,1,257.06,1044.491Z" transform="translate(-157.272 -898.548)" fill="#75e036"/><path d="M305.789,978.86a73.142,73.142,0,0,1-1.777,10.983l-61.585,56.692a73.347,73.347,0,0,1-11.078.855Z" transform="translate(-155.989 -897.285)" fill="#75e036"/><path d="M305.033,967.856v.01l-84.672,77.955h-.01a74.488,74.488,0,0,1-8.161-1.53l92.007-84.7A74.016,74.016,0,0,1,305.033,967.856Z" transform="translate(-155.033 -896.324)" fill="#75e036"/></g></g><g transform="translate(1059 -54)"><g transform="translate(77 575)"><path d="M192.5,895.67,156.57,928.79A52.625,52.625,0,0,1,192.5,895.67Z" transform="translate(-153.551 -893.894)" fill="#75e036"/><path d="M207.569,893.086l-55.539,51.2a52.181,52.181,0,0,1,.752-7.748l46.993-43.316c1.57-.146,3.166-.219,4.775-.219C205.561,893,206.572,893.026,207.569,893.086Z" transform="translate(-152.03 -893)" fill="#75e036"/><path d="M220.529,895.893,153.458,957.71a52.264,52.264,0,0,1-1.018-6.165l62.03-57.175A50.77,50.77,0,0,1,220.529,895.893Z" transform="translate(-152.167 -893.459)" fill="#75e036"/><path d="M232.48,902.471l-73.715,68.275a53.368,53.368,0,0,1-2.115-5.041V965.7l71.2-65.628A50.737,50.737,0,0,1,232.48,902.471Z" transform="translate(-153.577 -895.368)" fill="#75e036"/><path d="M242.848,910.9l-76.735,70.916a52.836,52.836,0,0,1-2.973-4.449l75.644-69.685Q240.9,909.2,242.848,910.9Z" transform="translate(-155.751 -897.917)" fill="#75e036"/><path d="M253.415,922.446,176.5,993.255a51.084,51.084,0,0,1-4.09-4.05l77.4-71.055A51.754,51.754,0,0,1,253.415,922.446Z" transform="translate(-158.856 -901.424)" fill="#75e036"/><path d="M262.534,935.079l-74.075,68.2a49.8,49.8,0,0,1-4.35-2.886l75.9-69.878A50.84,50.84,0,0,1,262.534,935.079Z" transform="translate(-162.775 -905.564)" fill="#75e036"/><path d="M270.417,949.068l-68.5,63.068c-1.629-.585-3.226-1.25-4.775-1.989l71.694-66.007A48.922,48.922,0,0,1,270.417,949.068Z" transform="translate(-167.139 -910.129)" fill="#75e036"/><path d="M257.06,1032.392l30.666-28.232A52.718,52.718,0,0,1,257.06,1032.392Z" transform="translate(-187.209 -930.232)" fill="#75e036"/><path d="M283.458,978.86a51.2,51.2,0,0,1-1.244,7.688L239.1,1026.232a51.34,51.34,0,0,1-7.755.6Z" transform="translate(-178.597 -921.758)" fill="#75e036"/><path d="M277.18,965.376v.007l-59.27,54.568H217.9a52.144,52.144,0,0,1-5.713-1.071l64.4-59.29A51.813,51.813,0,0,1,277.18,965.376Z" transform="translate(-172.18 -915.304)" fill="#75e036"/></g></g></g></svg>