<svg xmlns="http://www.w3.org/2000/svg" width="309" height="309" viewBox="0 0 309 309"><g fill="#d8fcc9"><path d="M 154.5 308.5 C 144.0509643554688 308.5 133.6086578369141 307.4473571777344 123.4631118774414 305.3712768554688 C 113.5756530761719 303.3479919433594 103.8500366210938 300.3290100097656 94.55638122558594 296.3981018066406 C 85.43138122558594 292.53857421875 76.63023376464844 287.761474609375 68.39749908447266 282.1994934082031 C 60.2428092956543 276.6903076171875 52.57450103759766 270.3633728027344 45.60553741455078 263.3944702148438 C 38.63661575317383 256.4255065917969 32.3096923828125 248.7571868896484 26.80050086975098 240.6024932861328 C 21.23853874206543 232.3697662353516 16.46142387390137 223.5686187744141 12.60188484191895 214.4436187744141 C 8.670999526977539 205.1499633789063 5.651999950408936 195.4243469238281 3.628730773925781 185.5368804931641 C 1.552653789520264 175.3913421630859 0.5 164.9490356445313 0.5 154.5 C 0.5 144.0509643554688 1.552653789520264 133.6086578369141 3.628730773925781 123.4631118774414 C 5.651999950408936 113.5756530761719 8.670999526977539 103.8500366210938 12.60188484191895 94.55638122558594 C 16.46142387390137 85.43138122558594 21.23853874206543 76.63023376464844 26.80050086975098 68.39749908447266 C 32.3096923828125 60.2428092956543 38.63661575317383 52.57450103759766 45.60553741455078 45.60553741455078 C 52.57450103759766 38.63661575317383 60.2428092956543 32.3096923828125 68.39749908447266 26.80050086975098 C 76.63023376464844 21.23853874206543 85.43138122558594 16.46142387390137 94.55638122558594 12.60188484191895 C 103.8500366210938 8.670999526977539 113.5756530761719 5.651999950408936 123.4631118774414 3.628730773925781 C 133.6086578369141 1.552653789520264 144.0509643554688 0.5 154.5 0.5 C 164.9490356445313 0.5 175.3913421630859 1.552653789520264 185.5368804931641 3.628730773925781 C 195.4243469238281 5.651999950408936 205.1499633789063 8.670999526977539 214.4436187744141 12.60188484191895 C 223.5686187744141 16.46142387390137 232.3697662353516 21.23853874206543 240.6024932861328 26.80050086975098 C 248.7571868896484 32.3096923828125 256.4255065917969 38.63661575317383 263.3944702148438 45.60553741455078 C 270.3633728027344 52.57450103759766 276.6903076171875 60.2428092956543 282.1994934082031 68.39749908447266 C 287.761474609375 76.63023376464844 292.53857421875 85.43138122558594 296.3981018066406 94.55638122558594 C 300.3290100097656 103.8500366210938 303.3479919433594 113.5756530761719 305.3712768554688 123.4631118774414 C 307.4473571777344 133.6086578369141 308.5 144.0509643554688 308.5 154.5 C 308.5 164.9490356445313 307.4473571777344 175.3913421630859 305.3712768554688 185.5368804931641 C 303.3479919433594 195.4243469238281 300.3290100097656 205.1499633789063 296.3981018066406 214.4436187744141 C 292.53857421875 223.5686187744141 287.761474609375 232.3697662353516 282.1994934082031 240.6024932861328 C 276.6903076171875 248.7571868896484 270.3633728027344 256.4255065917969 263.3944702148438 263.3944702148438 C 256.4255065917969 270.3633728027344 248.7571868896484 276.6903076171875 240.6024932861328 282.1994934082031 C 232.3697662353516 287.761474609375 223.5686187744141 292.53857421875 214.4436187744141 296.3981018066406 C 205.1499633789063 300.3290100097656 195.4243469238281 303.3479919433594 185.5368804931641 305.3712768554688 C 175.3913421630859 307.4473571777344 164.9490356445313 308.5 154.5 308.5 Z" stroke="none"/><path d="M 154.5 1 C 144.0845794677734 1 133.6759643554688 2.049224853515625 123.5633392333984 4.11859130859375 C 113.7082366943359 6.135223388671875 104.0144195556641 9.14434814453125 94.75119018554688 13.0623779296875 C 85.6558837890625 16.90933227539063 76.88337707519531 21.67092895507813 68.67738342285156 27.21481323242188 C 60.549072265625 32.70614624023438 52.90554809570313 39.01266479492188 45.9591064453125 45.9591064453125 C 39.01266479492188 52.90554809570313 32.70614624023438 60.549072265625 27.21481323242188 68.67738342285156 C 21.67092895507813 76.88337707519531 16.90933227539063 85.6558837890625 13.0623779296875 94.75119018554688 C 9.14434814453125 104.0144195556641 6.135223388671875 113.7082366943359 4.11859130859375 123.5633392333984 C 2.049224853515625 133.6759643554688 1 144.0845794677734 1 154.5 C 1 164.9154205322266 2.049224853515625 175.3240356445313 4.11859130859375 185.4366455078125 C 6.135223388671875 195.2917785644531 9.14434814453125 204.9855804443359 13.0623779296875 214.2488098144531 C 16.90933227539063 223.3441162109375 21.67092895507813 232.1166076660156 27.21481323242188 240.3226165771484 C 32.70614624023438 248.450927734375 39.01266479492188 256.0944519042969 45.9591064453125 263.0408935546875 C 52.90554809570313 269.9873352050781 60.549072265625 276.2938537597656 68.67738342285156 281.7851867675781 C 76.88337707519531 287.3290710449219 85.6558837890625 292.0906677246094 94.75119018554688 295.9376220703125 C 104.0144195556641 299.8556518554688 113.7082366943359 302.8647766113281 123.5633392333984 304.8814086914063 C 133.6759643554688 306.9507751464844 144.0845794677734 308 154.5 308 C 164.9154205322266 308 175.3240356445313 306.9507751464844 185.4366455078125 304.8814086914063 C 195.2917785644531 302.8647766113281 204.9855804443359 299.8556518554688 214.2488098144531 295.9376220703125 C 223.3441162109375 292.0906677246094 232.1166076660156 287.3290710449219 240.3226165771484 281.7851867675781 C 248.450927734375 276.2938537597656 256.0944519042969 269.9873352050781 263.0408935546875 263.0408935546875 C 269.9873352050781 256.0944519042969 276.2938537597656 248.450927734375 281.7851867675781 240.3226165771484 C 287.3290710449219 232.1166076660156 292.0906677246094 223.3441162109375 295.9376220703125 214.2488098144531 C 299.8556518554688 204.9855804443359 302.8647766113281 195.2917785644531 304.8814086914063 185.4366455078125 C 306.9507751464844 175.3240356445313 308 164.9154205322266 308 154.5 C 308 144.0845794677734 306.9507751464844 133.6759643554688 304.8814086914063 123.5633392333984 C 302.8647766113281 113.7082366943359 299.8556518554688 104.0144195556641 295.9376220703125 94.75119018554688 C 292.0906677246094 85.6558837890625 287.3290710449219 76.88337707519531 281.7851867675781 68.67738342285156 C 276.2938537597656 60.549072265625 269.9873352050781 52.90554809570313 263.0408935546875 45.9591064453125 C 256.0944519042969 39.01266479492188 248.450927734375 32.70614624023438 240.3226165771484 27.21481323242188 C 232.1166076660156 21.67092895507813 223.3441162109375 16.90933227539063 214.2488098144531 13.0623779296875 C 204.9855804443359 9.14434814453125 195.2917785644531 6.135223388671875 185.4366455078125 4.11859130859375 C 175.3240356445313 2.049224853515625 164.9154205322266 1 154.5 1 M 154.5 0 C 239.8280029296875 0 309 69.1719970703125 309 154.5 C 309 239.8280029296875 239.8280029296875 309 154.5 309 C 69.1719970703125 309 0 239.8280029296875 0 154.5 C 0 69.1719970703125 69.1719970703125 0 154.5 0 Z" stroke="none" fill="#b6ff63"/></g></svg>